<?xml version="1.0" encoding="UTF-8" standalone="no"?>
<svg width="34px" height="40px" viewBox="0 0 34 40" version="1.1" xmlns="http://www.w3.org/2000/svg" xmlns:xlink="http://www.w3.org/1999/xlink">
    <!-- Generator: Sketch 3.8.2 (29753) - http://www.bohemiancoding.com/sketch -->
    <title>stuart-logo</title>
    <desc>Created with Sketch.</desc>
    <defs></defs>
    <g id="Page-1" stroke="none" stroke-width="1" fill="none" fill-rule="evenodd">
        <g id="Desktop-View" transform="translate(-142.000000, -20.000000)" fill="#FFFFFF">
            <g id="header" transform="translate(142.000000, 20.000000)">
                <g id="stuart-logo">
                    <g id="Fill-1-+-Fill-2-+-Fill-3-+-Page-1">
                        <g id="Fill-1-+-Fill-2-+-Fill-3">
                            <path d="M32.4165714,9.30294672 C32.1659429,9.30294672 31.9065714,9.372842 31.6336,9.51562807 L17.0048571,18.4522384 L3.78274286,10.5560692 L17.0184571,2.65191191 L17.4507429,2.90053939 C17.4934857,2.91651546 17.5342857,2.93548703 17.5712,2.95745412 L22.7887429,5.97992558 C23.3104,6.2625022 23.7174286,6.27448424 24.1147429,6.03783881 L24.9793143,5.54357935 C25.1910857,5.41776785 25.3164,5.24103265 25.3319429,5.04632438 C25.3455429,4.87657871 25.2707429,4.71182556 25.1046286,4.56504548 L25.1075429,4.56005296 C25.0677143,4.52710233 25.0230286,4.4941517 24.9725143,4.46519508 L20.0590286,1.63443638 L20.0570857,1.6374319 L17.7072,0.279466524 C17.3798286,0.0897507731 16.8552571,0.0538046309 16.4589143,0.189601168 C16.3646857,0.222551799 16.2908571,0.255502429 16.2277143,0.293445579 L8.48348571,4.948471 L8.48737143,4.95446202 L1.30074286,9.25002602 C0.782971429,9.58652185 0.492514286,10.0328531 0.481828571,10.508141 C0.471142857,10.9504782 0.715942857,11.3728454 1.18028571,11.7053472 L16.2558857,20.7717631 C16.6541714,21.0104055 17.3332,21.009407 17.7314857,20.7697661 L31.3635429,12.5101414 L31.3635429,28.0858045 L16.9708571,36.6809265 L2.5772,28.0858045 L2.57525714,27.5326333 C2.56748571,27.4847052 2.56262857,27.4377755 2.56262857,27.3918443 L2.56262857,22.6349715 C2.56262857,22.1606821 2.33434286,21.754291 1.95742857,21.5505962 C1.91371429,21.5156485 1.87,21.4826979 1.82434286,21.4557383 L1.12005714,21.0363666 C1.06565714,21.0044145 1.01222857,20.9794519 0.960742857,20.9614789 C0.612,20.8386629 0.298228571,21.0243846 0.225371429,21.3908355 L0.221485714,21.4088086 L0.2244,28.7737738 C0.295314286,29.224099 0.592571429,29.6854079 0.946171429,29.8970907 L16.218,39.0094378 C16.4171429,39.1282597 16.6784571,39.194161 16.9543429,39.194161 C17.2321714,39.194161 17.4944571,39.1282597 17.6945714,39.0084393 L32.9644571,29.8661371 C33.3773143,29.6185081 33.7008,29.0393758 33.7008,28.5481119 L33.7046857,10.6689001 C33.7046857,9.99790547 33.2228571,9.30294672 32.4165714,9.30294672" id="Fill-1"></path>
                            <path d="M15.2281143,29.8331865 L11.8825143,27.9030783 C11.5328,27.7013805 11.1840571,27.9210514 11.1840571,28.3234485 L11.1840571,29.6484632 C11.1840571,29.9969411 11.4142857,30.4033322 11.7096,30.5750749 L15.0571429,32.5221576 C15.1504,32.5770753 15.2436571,32.6040349 15.3349714,32.6040349 C15.4602857,32.6040349 15.5710286,32.5511142 15.6477714,32.4532608 C15.7177143,32.364394 15.7546286,32.243575 15.7546286,32.1037844 L15.7546286,30.7578011 C15.7546286,30.4093232 15.5234286,30.0029321 15.2281143,29.8331865" id="Fill-2"></path>
                            <path d="M15.7546286,25.8441632 C15.7546286,25.4956853 15.5224571,25.0902927 15.2261714,24.920547 L9.89885714,21.883098 C9.54817143,21.6823987 9.19942857,21.9030681 9.19942857,22.3054652 L9.19942857,23.6324769 C9.19942857,23.9809548 9.4316,24.3863474 9.72788571,24.5550946 L15.0561714,27.5935421 C15.1484571,27.6464628 15.2417143,27.6734224 15.3310857,27.6734224 C15.4564,27.6734224 15.5690857,27.6195032 15.6458286,27.5216498 C15.7167429,27.4317844 15.7546286,27.3109655 15.7546286,27.1701764 L15.7546286,25.8441632" id="Fill-3"></path>
                        </g>
                    </g>
                </g>
            </g>
        </g>
    </g>
</svg>